<?xml version="1.0" encoding="UTF-8" standalone="no"?>
<!-- Created with Inkscape (http://www.inkscape.org/) -->

<svg
   xmlns:dc="http://purl.org/dc/elements/1.1/"
   xmlns:cc="http://creativecommons.org/ns#"
   xmlns:rdf="http://www.w3.org/1999/02/22-rdf-syntax-ns#"
   xmlns:svg="http://www.w3.org/2000/svg"
   xmlns="http://www.w3.org/2000/svg"
   xmlns:sodipodi="http://sodipodi.sourceforge.net/DTD/sodipodi-0.dtd"
   xmlns:inkscape="http://www.inkscape.org/namespaces/inkscape"
   preserveAspectRatio="xMinYMin meet"
   viewBox="0 0 1000 1032.335"
   width="1000"
   height="1032.335"
   id="svg5070"
   version="1.1"
   inkscape:version="0.48.3.1 r9886"
   sodipodi:docname="biel.svg">
  <defs
     id="defs5072" />
  <sodipodi:namedview
     id="base"
     pagecolor="#ffffff"
     bordercolor="#666666"
     borderopacity="1.0"
     inkscape:pageopacity="0.0"
     inkscape:pageshadow="2"
     inkscape:zoom="0.35"
     inkscape:cx="832.87382"
     inkscape:cy="120.49927"
     inkscape:document-units="px"
     inkscape:current-layer="capa1"
     showgrid="false"
     fit-margin-top="0"
     fit-margin-left="0"
     fit-margin-right="0"
     fit-margin-bottom="0"
     inkscape:window-width="1364"
     inkscape:window-height="766"
     inkscape:window-x="0"
     inkscape:window-y="0"
     inkscape:window-maximized="0" />
  <metadata
     id="metadata5075">
    <rdf:RDF>
      <cc:Work
         rdf:about="">
        <dc:format>image/svg+xml</dc:format>
        <dc:type
           rdf:resource="http://purl.org/dc/dcmitype/StillImage" />
        <dc:title></dc:title>
      </cc:Work>
    </rdf:RDF>
  </metadata>
  <g
     inkscape:label="Capa 1"
     inkscape:groupmode="layer"
     id="capa1"
     transform="translate(89.997713,469.22324)">
    <g
       id="g2994"
       transform="matrix(3.6305877,0,0,3.6305877,-805.75047,-905.60707)">
      <path
         inkscape:connector-curvature="0"
         id="path5361-2-3-5-6"
         transform="translate(195.9889,120.19647)"
         d="m 184.71875,166.03125 -77.28125,12.625 c 0,0 -44.27425,16.68825 -57.40625,19.71875 -13.132,3.0305 -24.75,5.03125 -24.75,5.03125 0,0 -13.6418,28.8056 -18.1875,41.9375 -7.31563073,21.20724 0.5895734,30.17801 -5.9375,39 l 275.4375,0 0,-77.4375 c -13.0489,-2.4583 -13.12945,-19.37395 -26.78125,-21.21875 -18.6878,-2.5254 -65.09375,-19.65625 -65.09375,-19.65625 z"
         style="fill:#2b1100;fill-opacity:1;stroke:none" />
      <path
         inkscape:export-ydpi="72"
         inkscape:export-xdpi="72"
         inkscape:export-filename="/home/nabax/rescorer/images/biel.png"
         sodipodi:nodetypes="csssssssssssssc"
         inkscape:connector-curvature="0"
         id="path4580-8-3-22-6"
         d="m 276.20136,262.24972 c 5.9662,13.6872 19.6534,55.0997 27.3743,64.9263 7.721,9.8267 25.9706,11.9325 31.5858,9.8267 5.6153,-2.1057 34.3935,-20.3553 40.0087,-26.6724 5.61531,-6.3172 8.42291,-13.3363 10.52861,-26.6725 2.1057,-13.3362 -1.4038,-14.0381 3.5095,-16.1438 4.9134,-2.1057 12.6344,-4.2115 12.6344,-11.9324 0,-7.721 4.2114,-13.3363 4.9133,-18.2496 0.7019,-4.9133 6.3172,-17.5477 -2.1057,-16.8458 -8.4229,0.702 -14.0381,17.5477 -16.1439,13.3363 -2.1057,-4.2115 -3.5095,-63.8735 -14.74001,-70.8926 -11.2305,-7.0191 -51.2392,-23.8648 -70.8926,-10.5286 -19.6533,13.3362 -32.9895,36.4991 -31.5857,44.922 1.4038,8.4229 3.5095,35.7972 1.4038,42.8163 -2.1058,7.0191 3.5095,22.1101 3.5095,22.1101 z"
         style="fill:#ffccaa;fill-opacity:1;stroke:none" />
      <path
         inkscape:export-ydpi="72"
         inkscape:export-xdpi="72"
         inkscape:export-filename="/home/nabax/rescorer/images/biel.png"
         sodipodi:nodetypes="csssssssssssscssscscscscccsssssscssssssscsssc"
         inkscape:connector-curvature="0"
         id="path4582-0-7-5-8"
         d="m 380.08347,292.78262 c -1.4038,14.0381 -4.21141,18.2496 2.1058,12.6343 6.3171,-5.6152 10.5286,-7.019 8.4229,-22.461 -2.1058,-15.4419 -7.7711,-43.8291 -2.369,-47.0277 6.6681,-3.9482 5.0011,-6.2294 7.8965,-9.5635 2.6836,-3.0901 11.8493,-8.136 12.6343,-3.4218 0.6087,3.6562 -3.3341,18.4251 -1.9303,14.2136 1.4038,-4.2114 6.5804,-9.7389 3.7728,-16.0561 -2.8076,-6.3171 -9.4757,-9.037 -8.0719,-18.1618 1.4038,-9.1248 13.3362,-11.9324 -1.4038,-43.5182 -14.7401,-31.5858 -37.20111,-40.0087 -56.85451,-38.6049 -19.6534,1.4038 -20.3553,-4.9133 -30.8839,5.6153 -10.5286,10.5286 -4.9133,12.6343 -21.7591,7.0191 -16.8457,-5.6153 -21.759,-2.8077 -21.759,-2.8077 0,0 11.2304,-0.7019 18.2495,4.2115 7.0191,4.9133 -7.721,1.4038 -16.1438,9.1247 -8.4229,7.721 -5.9727,4.9149 -16.1439,2.1058 -9.2125,-2.5445 -8.4229,1.4038 -8.4229,1.4038 0,0 2.8077,-4.9134 5.6153,3.5095 2.8076,8.4229 3.5095,7.0191 3.5095,7.0191 0,0 -9.1248,-3.5096 -10.5286,4.2114 -1.4038,7.721 0,5.6153 0,5.6153 0,0 3.5096,-8.4229 9.1248,-7.721 5.6153,0.7019 1.4038,5.6152 1.4038,5.6152 0,0 -19.6534,1.4039 -14.0381,13.3362 6.8693,14.5025 2.8697,2.725 3.5095,1.4039 4.2115,-8.4229 6.3172,0 5.6153,3.5095 -0.7019,3.5095 -4.2115,6.3172 1.4038,11.9324 5.6152,5.6153 5.6152,6.3172 8.4229,14.74 2.8076,8.4229 -0.7019,17.5477 4.2114,21.0572 4.9133,3.5096 2.8076,-2.8076 4.2115,4.2115 1.4038,7.019 0.7018,22.461 3.5095,23.8648 2.8076,1.4038 1.4038,-6.3172 1.4038,-6.3172 0,0 -1.4038,-38.6048 -0.7019,-49.8353 0.7019,-11.2305 -1.4038,-25.2686 2.1057,-14.0381 3.5095,11.2305 8.4229,16.1438 16.1439,8.4228 7.7209,-7.7209 6.3171,-18.2495 16.1438,-21.0572 9.8267,-2.8076 21.7591,-4.2114 32.9896,1.4039 11.2305,5.6152 11.2305,-2.1058 12.6343,-5.6153 1.4038,-3.5095 3.5095,-2.8076 8.4229,6.3171 4.9133,9.1248 9.1248,6.3172 9.1248,6.3172 0,0 -4.9134,3.5095 -2.8076,12.6343 2.1057,9.1248 2.1057,16.1439 6.3171,16.1439 4.21151,0 5.61531,35.0953 4.21151,44.2201 -1.4039,9.1248 0.7018,34.3934 0.7018,34.3934 z"
         style="fill:#372825;fill-opacity:1;stroke:none" />
      <path
         inkscape:export-ydpi="72"
         inkscape:export-xdpi="72"
         inkscape:export-filename="/home/nabax/rescorer/images/biel.png"
         inkscape:connector-curvature="0"
         id="path4584-3-5-2-0"
         d="m 393.94617,257.16092 c 3.685,-1.4038 3.5095,-4.036 4.9134,-5.0889 1.4038,-1.0528 2.2812,-0.7019 2.2812,-2.9831 0,-2.2812 -2.8077,-3.1586 -3.1586,-5.4397 -0.351,-2.2812 0,-4.2115 -2.2812,-3.3341 -2.2812,0.8774 -2.8077,3.685 -1.4038,5.6152 1.4038,1.9303 2.2812,0.8774 1.7547,3.3341 -0.5264,2.4567 -2.4566,4.5624 -2.6321,6.3172 -0.1755,1.7547 0.5264,1.5793 0.5264,1.5793 z"
         style="fill:#ac5760;fill-opacity:1;stroke:none" />
    </g>
  </g>
</svg>
