<?xml version="1.0" encoding="UTF-8" standalone="no"?>
<!-- Created with Inkscape (http://www.inkscape.org/) -->

<svg
   xmlns:dc="http://purl.org/dc/elements/1.1/"
   xmlns:cc="http://creativecommons.org/ns#"
   xmlns:rdf="http://www.w3.org/1999/02/22-rdf-syntax-ns#"
   xmlns:svg="http://www.w3.org/2000/svg"
   xmlns="http://www.w3.org/2000/svg"
   xmlns:sodipodi="http://sodipodi.sourceforge.net/DTD/sodipodi-0.dtd"
   xmlns:inkscape="http://www.inkscape.org/namespaces/inkscape"
   preserveAspectRatio="xMinYMin meet"
   viewBox="0 0 1000 1032.335"
   width="1000"
   height="1032.335"
   id="svg5070"
   version="1.1"
   inkscape:version="0.48.3.1 r9886"
   sodipodi:docname="biel.svg">
  <defs
     id="defs5072" />
  <sodipodi:namedview
     id="base"
     pagecolor="#ffffff"
     bordercolor="#666666"
     borderopacity="1.0"
     inkscape:pageopacity="0.0"
     inkscape:pageshadow="2"
     inkscape:zoom="0.35"
     inkscape:cx="366.68239"
     inkscape:cy="408.37919"
     inkscape:document-units="px"
     inkscape:current-layer="capa1"
     showgrid="false"
     fit-margin-top="0"
     fit-margin-left="0"
     fit-margin-right="0"
     fit-margin-bottom="0"
     inkscape:window-width="1364"
     inkscape:window-height="766"
     inkscape:window-x="0"
     inkscape:window-y="0"
     inkscape:window-maximized="0" />
  <metadata
     id="metadata5075">
    <rdf:RDF>
      <cc:Work
         rdf:about="">
        <dc:format>image/svg+xml</dc:format>
        <dc:type
           rdf:resource="http://purl.org/dc/dcmitype/StillImage" />
        <dc:title></dc:title>
      </cc:Work>
    </rdf:RDF>
  </metadata>
  <g
     inkscape:label="Capa 1"
     inkscape:groupmode="layer"
     id="capa1"
     transform="translate(89.997713,469.22324)">
    <g
       transform="matrix(3.622779,0,0,3.622779,7642.4842,-5226.1262)"
       style="opacity:1"
       id="g3849">
      <path
         inkscape:connector-curvature="0"
         id="path5361-3"
         transform="translate(0,452.36218)"
         d="m -1950.25,1026.7188 -77.2812,12.625 c 0,0 -44.2743,16.6882 -57.4063,19.7187 -13.132,3.0305 -24.75,5.0313 -24.75,5.0313 0,0 -13.6418,28.8054 -18.1875,41.9374 -7.523,21.8084 1.0473,30.6768 -6.5312,39.75 l 276.0312,0 0,-78.1874 c -13.0489,-2.4584 -13.1295,-19.374 -26.7812,-21.2188 -18.6878,-2.5254 -65.0938,-19.6562 -65.0938,-19.6562 z"
         style="fill:#2b1100;fill-opacity:1;stroke:none" />
      <path
         sodipodi:nodetypes="csssssssssssssc"
         inkscape:connector-curvature="0"
         id="path4580-3"
         d="m -2054.7585,1455.1068 c 5.9662,13.6872 19.6534,55.0997 27.3744,64.9264 7.7209,9.8266 25.9705,11.9324 31.5857,9.8266 5.6153,-2.1057 34.3935,-20.3553 40.0087,-26.6724 5.6153,-6.3172 8.4229,-13.3362 10.5286,-26.6724 2.1058,-13.3363 -1.4038,-14.0382 3.5095,-16.1439 4.9134,-2.1057 12.6344,-4.2114 12.6344,-11.9324 0,-7.721 4.2114,-13.3362 4.9133,-18.2496 0.7019,-4.9133 6.3172,-17.5476 -2.1057,-16.8457 -8.4229,0.7019 -14.0381,17.5476 -16.1438,13.3362 -2.1058,-4.2115 -3.5096,-63.8735 -14.7401,-70.8926 -11.2305,-7.019 -51.2392,-23.8648 -70.8925,-10.5286 -19.6534,13.3363 -32.9896,36.4992 -31.5858,44.9221 1.4038,8.4228 3.5095,35.7972 1.4038,42.8162 -2.1057,7.0191 3.5095,22.1101 3.5095,22.1101 z"
         style="fill:#ffccaa;fill-opacity:1;stroke:none" />
      <path
         inkscape:connector-curvature="0"
         id="path4607-9"
         d="m -1971.4237,1435.0116 c 1.5883,-1.0997 2.7399,-3.2078 1.9156,-5.1146 -1.1829,-2.7685 -4.1895,-4.2069 -7.0081,-4.7123 -5.7512,-1.3224 -11.8394,-2.5531 -17.6646,-0.9318 -3.2606,0.852 -6.7023,2.6958 -7.8996,6.0517 -0.6813,1.6304 -0.4963,3.7155 0.9327,4.8925 2.2076,1.8623 5.1098,2.5497 7.7833,3.4688 4.2375,1.0134 8.6811,0.6176 12.925,-0.1543 3.1541,-0.6605 6.3859,-1.5629 9.0157,-3.5 z"
         style="fill:#ffffff;stroke:none" />
      <path
         sodipodi:nodetypes="csssssssssssscssscscscscccsssssscssssssscsssc"
         inkscape:connector-curvature="0"
         id="path4582-6"
         d="m -1950.8763,1485.6397 c -1.4038,14.0381 -4.2115,18.2496 2.1057,12.6344 6.3172,-5.6153 10.5286,-7.0191 8.4229,-22.4611 -2.1057,-15.4419 -7.7711,-43.8291 -2.369,-47.0277 6.6681,-3.9482 5.0011,-6.2294 7.8965,-9.5635 2.6836,-3.0901 11.8494,-8.136 12.6343,-3.4218 0.6088,3.6562 -3.3341,18.4251 -1.9303,14.2137 1.4038,-4.2115 6.5804,-9.739 3.7728,-16.0562 -2.8076,-6.3171 -9.4757,-9.037 -8.0719,-18.1618 1.4038,-9.1248 13.3362,-11.9324 -1.4038,-43.5182 -14.7401,-31.5858 -37.2011,-40.0087 -56.8545,-38.6049 -19.6533,1.4039 -20.3552,-4.9133 -30.8839,5.6153 -10.5285,10.5286 -4.9133,12.6343 -21.7591,7.0191 -16.8457,-5.6153 -21.759,-2.8077 -21.759,-2.8077 0,0 11.2304,-0.7019 18.2495,4.2115 7.0191,4.9133 -7.7209,1.4038 -16.1438,9.1248 -8.4229,7.7209 -5.9727,4.9148 -16.1439,2.1057 -9.2125,-2.5444 -8.4229,1.4038 -8.4229,1.4038 0,0 2.8077,-4.9133 5.6153,3.5095 2.8076,8.4229 3.5095,7.0191 3.5095,7.0191 0,0 -9.1248,-3.5096 -10.5286,4.2114 -1.4038,7.721 0,5.6153 0,5.6153 0,0 3.5096,-8.4229 9.1248,-7.721 5.6153,0.7019 1.4038,5.6153 1.4038,5.6153 0,0 -19.6534,1.4038 -14.0381,13.3362 6.8693,14.5024 2.8697,2.7249 3.5095,1.4038 4.2115,-8.4229 6.3172,0 5.6153,3.5095 -0.7019,3.5096 -4.2115,6.3172 1.4038,11.9324 5.6153,5.6153 5.6153,6.3172 8.4229,14.7401 2.8076,8.4229 -0.7019,17.5476 4.2114,21.0572 4.9134,3.5095 2.8076,-2.8077 4.2115,4.2114 1.4038,7.0191 0.7019,22.461 3.5095,23.8648 2.8076,1.4038 1.4038,-6.3171 1.4038,-6.3171 0,0 -1.4038,-38.6049 -0.7019,-49.8354 0.7019,-11.2305 -1.4038,-25.2686 2.1057,-14.0381 3.5095,11.2305 8.4229,16.1438 16.1439,8.4229 7.7209,-7.721 6.3171,-18.2496 16.1438,-21.0572 9.8267,-2.8077 21.7591,-4.2115 32.9896,1.4038 11.2305,5.6152 11.2305,-2.1058 12.6343,-5.6153 1.4038,-3.5095 3.5096,-2.8076 8.4229,6.3172 4.9133,9.1248 9.1248,6.3171 9.1248,6.3171 0,0 -4.9134,3.5096 -2.8076,12.6344 2.1057,9.1247 2.1057,16.1438 6.3171,16.1438 4.2115,0 5.6153,35.0953 4.2115,44.2201 -1.4038,9.1248 0.7019,34.3934 0.7019,34.3934 z"
         style="fill:#372825;fill-opacity:1;stroke:none" />
      <path
         inkscape:connector-curvature="0"
         id="path4584-1"
         d="m -1937.0137,1450.018 c 3.685,-1.4038 3.5096,-4.036 4.9134,-5.0888 1.4038,-1.0529 2.2812,-0.7019 2.2812,-2.9832 0,-2.2811 -2.8077,-3.1585 -3.1586,-5.4397 -0.351,-2.2812 0,-4.2115 -2.2812,-3.3341 -2.2812,0.8774 -2.8076,3.685 -1.4038,5.6153 1.4038,1.9302 2.2812,0.8774 1.7547,3.334 -0.5264,2.4567 -2.4566,4.5624 -2.6321,6.3172 -0.1755,1.7547 0.5264,1.5793 0.5264,1.5793 z"
         style="fill:#ac5760;fill-opacity:1;stroke:none" />
      <path
         sodipodi:nodetypes="cccssc"
         inkscape:connector-curvature="0"
         id="path4588-9"
         d="m -1990.2732,1484.1639 c 5.1306,8.5096 3.309,21.6346 -5.1904,22.6875 -8.2933,4.1773 -24.0487,1.5166 -31.453,-3.0357 0,0 -9.7052,-6.5818 -4.8315,-16.3575 2.557,-5.129 14.9386,-8.7256 20.5725,-9.1137 4.8766,-0.3359 20.9024,5.8194 20.9024,5.8194 z"
         style="fill:#d8808c;fill-opacity:1;stroke:none" />
      <path
         sodipodi:nodetypes="cccc"
         inkscape:connector-curvature="0"
         id="path4596-69"
         d="m -2024.7929,1439.16 c 4.1298,-9.2493 -8.9635,-12.6839 -15.8177,-11.8232 -6.1673,0.037 -14.7831,5.1621 -11.4813,12.2649 4.3442,8.7322 23.1468,4.1543 27.299,-0.4417 z"
         style="fill:#ffffff;stroke:none" />
      <path
         inkscape:connector-curvature="0"
         id="path4590-27"
         d="m -2050.7837,1442.9998 c 3.2449,-6.005 3.5457,-8.2319 5.9701,-11.0293 2.4243,-2.7973 2.9557,-4.2741 6.0715,-4.8211 3.1158,-0.5469 5.8213,0.51 7.3099,0.5452 1.4885,0.035 1.2991,-2.4516 0.9827,-4.8173 -0.3164,-2.3656 0.8088,-2.7114 -2.0355,-3.151 -2.8442,-0.4395 -4.7762,-2.7193 -10.3398,1.6173 -5.5636,4.3366 -8.5759,5.7548 -11.9301,11.1366 -3.3543,5.3818 -4.9991,6.7081 -3.6728,8.353 1.3264,1.6449 4.239,4.4443 5.6241,3.6082 1.385,-0.8361 2.0199,-1.4416 2.0199,-1.4416 z"
         style="fill:#372825;fill-opacity:1;stroke:none" />
      <path
         inkscape:connector-curvature="0"
         id="path4592-2"
         d="m -1998.6337,1418.8405 c 8.1851,5.7913 11.8973,9.4825 17.0132,9.5096 5.1159,0.027 5.8445,-1.1729 9.4443,1.0129 3.5998,2.1858 6.0745,6.5626 7.6655,7.3234 1.5909,0.7608 3.7553,1.2533 3.4981,-1.3658 -0.257,-2.6196 -2.0244,-9.8516 -7.9972,-12.8625 -5.9729,-3.011 -8.4533,-0.6165 -13.2906,-2.1168 -4.8373,-1.5002 -5.9407,-3.4019 -10.8423,-4.12 -4.9016,-0.7181 -5.491,2.6192 -5.491,2.6192 z"
         style="fill:#372825;fill-opacity:1;stroke:none" />
      <path
         transform="matrix(1.9653382,0,0,1.9653382,-3822.2047,935.67623)"
         d="m 909.64288,256.42856 c 0,1.38071 -1.11928,2.5 -2.5,2.5 -1.38071,0 -2.5,-1.11929 -2.5,-2.5 0,-1.38071 1.11929,-2.5 2.5,-2.5 1.38072,0 2.5,1.11929 2.5,2.5 z"
         sodipodi:ry="2.5"
         sodipodi:rx="2.5"
         sodipodi:cy="256.42856"
         sodipodi:cx="907.14288"
         id="path4619-49"
         style="fill:#372825;fill-opacity:1;fill-rule:nonzero;stroke:none"
         sodipodi:type="arc" />
      <path
         d="m 909.64288,256.42856 c 0,1.38071 -1.11928,2.5 -2.5,2.5 -1.38071,0 -2.5,-1.11929 -2.5,-2.5 0,-1.38071 1.11929,-2.5 2.5,-2.5 1.38072,0 2.5,1.11929 2.5,2.5 z"
         sodipodi:ry="2.5"
         sodipodi:rx="2.5"
         sodipodi:cy="256.42856"
         sodipodi:cx="907.14288"
         id="path4619-4-97"
         style="fill:#372825;fill-opacity:1;fill-rule:nonzero;stroke:none"
         sodipodi:type="arc"
         transform="matrix(1.9653382,0,0,1.9653382,-3769.5191,930.70129)" />
    </g>
  </g>
</svg>
