<?xml version="1.0" encoding="UTF-8" standalone="no"?>
<!-- Created with Inkscape (http://www.inkscape.org/) -->

<svg
   xmlns:dc="http://purl.org/dc/elements/1.1/"
   xmlns:cc="http://creativecommons.org/ns#"
   xmlns:rdf="http://www.w3.org/1999/02/22-rdf-syntax-ns#"
   xmlns:svg="http://www.w3.org/2000/svg"
   xmlns="http://www.w3.org/2000/svg"
   xmlns:sodipodi="http://sodipodi.sourceforge.net/DTD/sodipodi-0.dtd"
   xmlns:inkscape="http://www.inkscape.org/namespaces/inkscape"
   preserveAspectRatio="xMinYMin meet"
   viewBox="0 0 1000 1032.335"
   width="1000"
   height="1032.335"
   id="svg5070"
   version="1.1"
   inkscape:version="0.48.3.1 r9886"
   sodipodi:docname="face-wrong3.svg">
  <defs
     id="defs5072" />
  <sodipodi:namedview
     id="base"
     pagecolor="#ffffff"
     bordercolor="#666666"
     borderopacity="1.0"
     inkscape:pageopacity="0.0"
     inkscape:pageshadow="2"
     inkscape:zoom="0.35"
     inkscape:cx="493.72232"
     inkscape:cy="523.86"
     inkscape:document-units="px"
     inkscape:current-layer="capa1"
     showgrid="false"
     fit-margin-top="0"
     fit-margin-left="0"
     fit-margin-right="0"
     fit-margin-bottom="0"
     inkscape:window-width="1364"
     inkscape:window-height="766"
     inkscape:window-x="0"
     inkscape:window-y="0"
     inkscape:window-maximized="0" />
  <metadata
     id="metadata5075">
    <rdf:RDF>
      <cc:Work
         rdf:about="">
        <dc:format>image/svg+xml</dc:format>
        <dc:type
           rdf:resource="http://purl.org/dc/dcmitype/StillImage" />
        <dc:title></dc:title>
      </cc:Work>
    </rdf:RDF>
  </metadata>
  <g
     inkscape:label="Capa 1"
     inkscape:groupmode="layer"
     id="capa1"
     transform="translate(89.997713,469.22324)">
    <g
       id="g3901"
       transform="matrix(3.622779,0,0,3.622779,3634.3321,-5226.3674)">
      <path
         id="path5361-6-9-1"
         transform="translate(0,452.36218)"
         d="m -843.875,1026.7188 -77.28125,12.625 c 0,0 -44.27425,16.6883 -57.40625,19.7187 -13.132,3.0305 -24.75,5.0313 -24.75,5.0313 0,0 -13.6418,28.8054 -18.1875,41.9374 -7.5231,21.8084 1.0474,30.6768 -6.5312,39.75 l 276.0312,0 0,-78.1874 c -13.0489,-2.4584 -13.12945,-19.3739 -26.78125,-21.2188 -18.6879,-2.5254 -65.09375,-19.6562 -65.09375,-19.6562 z"
         style="fill:#2b1100;fill-opacity:1;stroke:none"
         inkscape:connector-curvature="0" />
      <path
         sodipodi:nodetypes="csssssssssssssc"
         inkscape:connector-curvature="0"
         id="path4580-87-4-2"
         d="m -948.38352,1455.1068 c 5.9662,13.6872 19.6533,55.0997 27.3743,64.9264 7.721,9.8267 25.9706,11.9324 31.5858,9.8267 5.6152,-2.1058 34.3934,-20.3553 40.0087,-26.6725 5.6152,-6.3171 8.4229,-13.3362 10.5286,-26.6724 2.1057,-13.3362 -1.4038,-14.0382 3.5095,-16.1439 4.9134,-2.1057 12.6343,-4.2114 12.6343,-11.9324 0,-7.721 4.2115,-13.3362 4.9134,-18.2496 0.7019,-4.9133 6.3171,-17.5476 -2.1058,-16.8457 -8.4228,0.7019 -14.0381,17.5477 -16.1438,13.3362 -2.1057,-4.2114 -3.5095,-63.8735 -14.74,-70.8925 -11.2305,-7.0191 -51.2392,-23.8649 -70.8926,-10.5286 -19.6534,13.3362 -32.9896,36.4991 -31.5858,44.922 1.4038,8.4228 3.5096,35.7972 1.4038,42.8163 -2.1057,7.019 3.5096,22.11 3.5096,22.11 z"
         style="fill:#ffccaa;fill-opacity:1;stroke:none" />
      <path
         inkscape:connector-curvature="0"
         id="path4607-0-9-8"
         d="m -865.04872,1435.0116 c 1.5883,-1.0996 2.7399,-3.2078 1.9155,-5.1145 -1.1829,-2.7686 -4.1894,-4.2069 -7.008,-4.7123 -5.7513,-1.3225 -11.8394,-2.5532 -17.6647,-0.9319 -3.2605,0.852 -6.7022,2.6958 -7.8996,6.0518 -0.6813,1.6303 -0.4962,3.7154 0.9327,4.8924 2.2077,1.8623 5.1098,2.5497 7.7833,3.4688 4.2376,1.0134 8.6811,0.6177 12.9251,-0.1543 3.1541,-0.6604 6.3859,-1.5629 9.0157,-3.4999 z"
         style="fill:#ffffff;stroke:none" />
      <path
         sodipodi:nodetypes="csssssssssssscssscscscscccsssssscssssssscsssc"
         inkscape:connector-curvature="0"
         id="path4582-2-8-6"
         d="m -844.50142,1485.6398 c -1.4038,14.0381 -4.2114,18.2495 2.1057,12.6343 6.3172,-5.6153 10.5286,-7.0191 8.4229,-22.461 -2.1057,-15.442 -7.771,-43.8291 -2.3689,-47.0278 6.6681,-3.9482 5.0011,-6.2294 7.8964,-9.5634 2.6836,-3.0902 11.8494,-8.1361 12.6344,-3.4218 0.6087,3.6561 -3.3341,18.425 -1.9303,14.2136 1.4038,-4.2115 6.5804,-9.739 3.7728,-16.0561 -2.8077,-6.3172 -9.4758,-9.0371 -8.072,-18.1619 1.4038,-9.1248 13.3363,-11.9324 -1.4038,-43.5182 -14.74,-31.5858 -37.201,-40.0086 -56.8544,-38.6048 -19.6534,1.4038 -20.3553,-4.9134 -30.8839,5.6152 -10.5286,10.5286 -4.9133,12.6343 -21.7591,7.0191 -16.8457,-5.6153 -21.7591,-2.8076 -21.7591,-2.8076 0,0 11.2305,-0.702 18.2496,4.2114 7.019,4.9133 -7.721,1.4038 -16.1439,9.1248 -8.4229,7.7209 -5.9727,4.9149 -16.1438,2.1057 -9.2125,-2.5444 -8.4229,1.4038 -8.4229,1.4038 0,0 2.8076,-4.9133 5.6152,3.5095 2.8077,8.4229 3.5096,7.0191 3.5096,7.0191 0,0 -9.1248,-3.5095 -10.5286,4.2115 -1.4038,7.7209 0,5.6152 0,5.6152 0,0 3.5095,-8.4229 9.1248,-7.721 5.6152,0.7019 1.4038,5.6153 1.4038,5.6153 0,0 -19.6534,1.4038 -14.0382,13.3362 6.8694,14.5024 2.8698,2.7249 3.5096,1.4038 4.2114,-8.4228 6.3171,0 5.6152,3.5095 -0.7019,3.5096 -4.2114,6.3172 1.4038,11.9325 5.6153,5.6152 5.6153,6.3171 8.4229,14.74 2.8076,8.4229 -0.7019,17.5476 4.2115,21.0572 4.9133,3.5095 2.8076,-2.8076 4.2114,4.2114 1.4038,7.0191 0.7019,22.4611 3.5095,23.8649 2.8077,1.4038 1.4039,-6.3172 1.4039,-6.3172 0,0 -1.4039,-38.6049 -0.702,-49.8354 0.702,-11.2305 -1.4038,-25.2686 2.1058,-14.0381 3.5095,11.2305 8.4228,16.1438 16.1438,8.4229 7.721,-7.721 6.3172,-18.2496 16.1439,-21.0572 9.8266,-2.8077 21.7591,-4.2115 32.9896,1.4038 11.2305,5.6152 11.2305,-2.1057 12.6343,-5.6152 1.4038,-3.5096 3.5095,-2.8077 8.4229,6.3171 4.9133,9.1248 9.1247,6.3172 9.1247,6.3172 0,0 -4.9133,3.5095 -2.8076,12.6343 2.1057,9.1248 2.1057,16.1438 6.3172,16.1438 4.2114,0 5.6152,35.0954 4.2114,44.2202 -1.4038,9.1247 0.7019,34.3934 0.7019,34.3934 z"
         style="fill:#372825;fill-opacity:1;stroke:none" />
      <path
         inkscape:connector-curvature="0"
         id="path4584-9-9-6"
         d="m -830.63872,1450.018 c 3.685,-1.4038 3.5095,-4.036 4.9133,-5.0888 1.4038,-1.0529 2.2812,-0.7019 2.2812,-2.9831 0,-2.2812 -2.8076,-3.1586 -3.1586,-5.4398 -0.3509,-2.2812 0,-4.2114 -2.2812,-3.3341 -2.2812,0.8774 -2.8076,3.6851 -1.4038,5.6153 1.4038,1.9302 2.2812,0.8774 1.7548,3.3341 -0.5264,2.4566 -2.4567,4.5624 -2.6322,6.3171 -0.1755,1.7548 0.5265,1.5793 0.5265,1.5793 z"
         style="fill:#ac5760;fill-opacity:1;stroke:none" />
      <path
         sodipodi:nodetypes="ccc"
         inkscape:connector-curvature="0"
         id="path4588-0-9-4"
         d="m -858.50084,1473.9578 c -35.84058,47.0952 -55.38265,30.4143 -69.6503,8.9547 8.83968,6.6003 44.61612,6.2739 69.6503,-8.9547 z"
         style="fill:#d8808c;fill-opacity:1;stroke:none" />
      <path
         sodipodi:nodetypes="cccc"
         inkscape:connector-curvature="0"
         id="path4596-2-5-0"
         d="m -918.41792,1439.16 c 4.1298,-9.2493 -8.9636,-12.6838 -15.8177,-11.8232 -6.1674,0.037 -14.7832,5.1621 -11.4814,12.265 4.3443,8.7322 23.1468,4.1543 27.2991,-0.4418 z"
         style="fill:#ffffff;stroke:none" />
      <path
         inkscape:connector-curvature="0"
         id="path4590-8-9-0"
         d="m -954.341,1426.7202 c 5.51666,-4.0194 6.74815,-5.899 10.14168,-7.3778 3.39344,-1.4788 4.50955,-2.5823 7.55678,-1.7325 3.04709,0.8498 5.03267,2.9699 6.36066,3.6434 1.3279,0.6735 2.22905,-1.6521 2.96351,-3.923 0.73433,-2.2709 1.89869,-2.0978 -0.47822,-3.7207 -2.37678,-1.6228 -3.1372,-4.5127 -10.02675,-2.9984 -6.88958,1.5143 -10.21896,1.4953 -15.56568,4.9052 -5.34672,3.4099 -7.40265,3.8975 -6.91501,5.9535 0.48761,2.0559 1.9087,5.8375 3.51889,5.6802 1.61019,-0.1572 2.44414,-0.4299 2.44414,-0.4299 z"
         style="fill:#372825;fill-opacity:1;stroke:none" />
      <path
         inkscape:connector-curvature="0"
         id="path4592-5-2-9"
         d="m -896.92184,1413.654 c 9.63276,2.7829 14.35112,5.0507 19.19229,3.3966 4.84117,-1.6541 5.13541,-3.0267 9.25335,-2.1439 4.11786,0.8827 7.89236,4.2045 9.64494,4.4007 1.75248,0.1962 3.95856,-0.049 2.85575,-2.4387 -1.10274,-2.3899 -5.14657,-8.6407 -11.77694,-9.5238 -6.63036,-0.883 -8.18714,2.1931 -13.2487,2.3642 -5.06166,0.1711 -6.7284,-1.263 -11.594,-0.332 -4.86562,0.931 -4.32669,4.2769 -4.32669,4.2769 z"
         style="fill:#372825;fill-opacity:1;stroke:none" />
      <path
         transform="matrix(1.9653382,0,0,1.9653382,-2713.5568,931.38299)"
         d="m 909.64288,256.42856 c 0,1.38071 -1.11928,2.5 -2.5,2.5 -1.38071,0 -2.5,-1.11929 -2.5,-2.5 0,-1.38071 1.11929,-2.5 2.5,-2.5 1.38072,0 2.5,1.11929 2.5,2.5 z"
         sodipodi:ry="2.5"
         sodipodi:rx="2.5"
         sodipodi:cy="256.42856"
         sodipodi:cx="907.14288"
         id="path4619-05-1-3"
         style="fill:#372825;fill-opacity:1;fill-rule:nonzero;stroke:none"
         sodipodi:type="arc" />
      <path
         d="m 909.64288,256.42856 c 0,1.38071 -1.11928,2.5 -2.5,2.5 -1.38071,0 -2.5,-1.11929 -2.5,-2.5 0,-1.38071 1.11929,-2.5 2.5,-2.5 1.38072,0 2.5,1.11929 2.5,2.5 z"
         sodipodi:ry="2.5"
         sodipodi:rx="2.5"
         sodipodi:cy="256.42856"
         sodipodi:cx="907.14288"
         id="path4619-4-4-3-6"
         style="fill:#372825;fill-opacity:1;fill-rule:nonzero;stroke:none"
         sodipodi:type="arc"
         transform="matrix(1.9653382,0,0,1.9653382,-2660.3661,927.47949)" />
    </g>
  </g>
</svg>
