<?xml version="1.0" encoding="UTF-8" standalone="no"?>
<!-- Created with Inkscape (http://www.inkscape.org/) -->

<svg
   xmlns:dc="http://purl.org/dc/elements/1.1/"
   xmlns:cc="http://creativecommons.org/ns#"
   xmlns:rdf="http://www.w3.org/1999/02/22-rdf-syntax-ns#"
   xmlns:svg="http://www.w3.org/2000/svg"
   xmlns="http://www.w3.org/2000/svg"
   xmlns:sodipodi="http://sodipodi.sourceforge.net/DTD/sodipodi-0.dtd"
   xmlns:inkscape="http://www.inkscape.org/namespaces/inkscape"
   preserveAspectRatio="xMinYMin meet"
   viewBox="0 0 1000 1032.335"
   width="1000"
   height="1032.335"
   id="svg5070"
   version="1.1"
   inkscape:version="0.48.3.1 r9886"
   sodipodi:docname="face-wrong5.svg">
  <defs
     id="defs5072" />
  <sodipodi:namedview
     id="base"
     pagecolor="#ffffff"
     bordercolor="#666666"
     borderopacity="1.0"
     inkscape:pageopacity="0.0"
     inkscape:pageshadow="2"
     inkscape:zoom="0.35"
     inkscape:cx="493.72232"
     inkscape:cy="529.57429"
     inkscape:document-units="px"
     inkscape:current-layer="capa1"
     showgrid="false"
     fit-margin-top="0"
     fit-margin-left="0"
     fit-margin-right="0"
     fit-margin-bottom="0"
     inkscape:window-width="1364"
     inkscape:window-height="766"
     inkscape:window-x="0"
     inkscape:window-y="0"
     inkscape:window-maximized="0" />
  <metadata
     id="metadata5075">
    <rdf:RDF>
      <cc:Work
         rdf:about="">
        <dc:format>image/svg+xml</dc:format>
        <dc:type
           rdf:resource="http://purl.org/dc/dcmitype/StillImage" />
        <dc:title></dc:title>
      </cc:Work>
    </rdf:RDF>
  </metadata>
  <g
     inkscape:label="Capa 1"
     inkscape:groupmode="layer"
     id="capa1"
     transform="translate(89.997713,469.22324)">
    <g
       id="g3966"
       transform="matrix(3.6227784,0,0,3.6227784,-1375.8576,-5226.6075)">
      <path
         id="path5361-1-1"
         transform="translate(0,452.36218)"
         d="m 539.09375,1026.7188 -77.28125,12.625 c 0,0 -44.27425,16.6883 -57.40625,19.7187 -13.132,3.0305 -24.75,5.0313 -24.75,5.0313 0,0 -13.6418,28.8054 -18.1875,41.9374 -7.52305,21.8084 1.04741,30.6769 -6.53125,39.75 l 276.03125,0 0,-78.1874 c -13.04887,-2.4584 -13.12945,-19.374 -26.78125,-21.2188 -18.6878,-2.5254 -65.09375,-19.6562 -65.09375,-19.6562 z"
         style="fill:#2b1100;fill-opacity:1;stroke:none"
         inkscape:connector-curvature="0" />
      <path
         sodipodi:nodetypes="csssssssssssssc"
         inkscape:connector-curvature="0"
         id="path4580-0-5"
         d="m 434.58528,1455.1068 c 5.9662,13.6873 19.6533,55.0997 27.3743,64.9265 7.721,9.8266 25.9706,11.9323 31.5858,9.8266 5.6153,-2.1057 34.39339,-20.3553 40.00869,-26.6724 5.6152,-6.3172 8.4229,-13.3362 10.5286,-26.6724 2.1057,-13.3363 -1.4038,-14.0382 3.5095,-16.1439 4.9134,-2.1057 12.6343,-4.2114 12.6343,-11.9324 0,-7.721 4.2115,-13.3362 4.9134,-18.2496 0.7019,-4.9133 6.3171,-17.5476 -2.1057,-16.8457 -8.4229,0.7019 -14.0382,17.5476 -16.1439,13.3362 -2.1057,-4.2115 -3.5095,-63.8735 -14.74,-70.8926 -11.2305,-7.019 -51.23919,-23.8648 -70.89259,-10.5286 -19.6534,13.3363 -32.9896,36.4992 -31.5858,44.9221 1.4039,8.4228 3.5096,35.7972 1.4039,42.8162 -2.1058,7.0191 3.5095,22.1101 3.5095,22.1101 z"
         style="fill:#ffccaa;fill-opacity:1;stroke:none" />
      <path
         inkscape:connector-curvature="0"
         id="path4607-3-8"
         d="m 517.92007,1435.0117 c 1.5883,-1.0997 2.7399,-3.2078 1.9156,-5.1147 -1.183,-2.7684 -4.1895,-4.2068 -7.0081,-4.7123 -5.75129,-1.3224 -11.83939,-2.5531 -17.66469,-0.9318 -3.2605,0.8521 -6.7022,2.6958 -7.8996,6.0517 -0.6812,1.6304 -0.4962,3.7155 0.9327,4.8925 2.2077,1.8623 5.1098,2.5497 7.7834,3.4688 4.2375,1.0134 8.6811,0.6176 12.925,-0.1542 3.15409,-0.6605 6.38589,-1.5629 9.01569,-3.5 z"
         style="fill:#ffffff;stroke:none" />
      <path
         sodipodi:nodetypes="csssssssssssscssscscscscccsssssscssssssscsssc"
         inkscape:connector-curvature="0"
         id="path4582-3-3"
         d="m 538.46737,1485.6398 c -1.4038,14.0381 -4.2114,18.2496 2.1058,12.6344 6.3171,-5.6153 10.5286,-7.0191 8.4228,-22.4611 -2.1057,-15.4419 -7.771,-43.8291 -2.3689,-47.0278 6.6681,-3.9482 5.0011,-6.2293 7.8964,-9.5634 2.6837,-3.0901 11.8494,-8.136 12.6344,-3.4219 0.6087,3.6562 -3.3341,18.4251 -1.9303,14.2137 1.4038,-4.2114 6.5804,-9.739 3.7728,-16.0562 -2.8076,-6.3171 -9.4758,-9.037 -8.072,-18.1618 1.4039,-9.1248 13.3363,-11.9324 -1.4038,-43.5182 -14.74,-31.5858 -37.201,-40.0087 -56.85439,-38.6049 -19.6534,1.4039 -20.3553,-4.9133 -30.8839,5.6153 -10.5286,10.5286 -4.9133,12.6343 -21.7591,7.0191 -16.8457,-5.6153 -21.7591,-2.8077 -21.7591,-2.8077 0,0 11.2305,-0.7019 18.2496,4.2115 7.0191,4.9133 -7.721,1.4038 -16.1439,9.1248 -8.4228,7.7209 -5.9726,4.9148 -16.1438,2.1057 -9.2125,-2.5444 -8.4229,1.4038 -8.4229,1.4038 0,0 2.8077,-4.9133 5.6153,3.5095 2.8076,8.4229 3.5095,7.0191 3.5095,7.0191 0,0 -9.1248,-3.5096 -10.5286,4.2114 -1.4038,7.721 0,5.6153 0,5.6153 0,0 3.5095,-8.4229 9.1248,-7.721 5.6152,0.7019 1.4038,5.6153 1.4038,5.6153 0,0 -19.6534,1.4038 -14.0381,13.3362 6.8693,14.5024 2.8697,2.7249 3.5095,1.4038 4.2115,-8.4229 6.3172,0 5.6153,3.5095 -0.702,3.5096 -4.2115,6.3172 1.4038,11.9324 5.6152,5.6153 5.6152,6.3172 8.4228,14.7401 2.8077,8.4229 -0.7019,17.5476 4.2115,21.0572 4.9133,3.5095 2.8076,-2.8077 4.2114,4.2114 1.4038,7.0191 0.7019,22.461 3.5096,23.8648 2.8076,1.4038 1.4038,-6.3171 1.4038,-6.3171 0,0 -1.4038,-38.6049 -0.7019,-49.8354 0.7019,-11.2305 -1.4038,-25.2686 2.1057,-14.0381 3.5095,11.2305 8.4229,16.1438 16.1438,8.4229 7.721,-7.721 6.3172,-18.2496 16.1439,-21.0572 9.8267,-2.8077 21.7591,-4.2115 32.9896,1.4038 11.23049,5.6152 11.23049,-2.1058 12.63429,-5.6153 1.4038,-3.5095 3.5095,-2.8076 8.4229,6.3172 4.9133,9.1248 9.1248,6.3171 9.1248,6.3171 0,0 -4.9134,3.5096 -2.8077,12.6344 2.1058,9.1247 2.1058,16.1438 6.3172,16.1438 4.2114,0 5.6152,35.0953 4.2114,44.2201 -1.4038,9.1248 0.7019,34.3934 0.7019,34.3934 z"
         style="fill:#372825;fill-opacity:1;stroke:none" />
      <path
         inkscape:connector-curvature="0"
         id="path4584-5-1"
         d="m 552.33007,1450.0181 c 3.685,-1.4039 3.5095,-4.0361 4.9134,-5.0888 1.4037,-1.0529 2.2811,-0.702 2.2811,-2.9832 0,-2.2811 -2.8076,-3.1585 -3.1586,-5.4397 -0.3509,-2.2812 0,-4.2115 -2.2812,-3.3341 -2.2811,0.8774 -2.8076,3.685 -1.4038,5.6153 1.4038,1.9302 2.2812,0.8774 1.7548,3.334 -0.5264,2.4567 -2.4567,4.5624 -2.6321,6.3172 -0.1755,1.7547 0.5264,1.5793 0.5264,1.5793 z"
         style="fill:#ac5760;fill-opacity:1;stroke:none" />
      <path
         sodipodi:nodetypes="cccssc"
         inkscape:connector-curvature="0"
         id="path4588-7-9"
         d="m 513.35627,1483.8069 c -6.65509,3.5094 -10.97669,21.9917 -19.47609,23.0445 -8.2933,4.1774 -24.0487,1.5166 -31.453,-3.0356 0,0 -18.2767,-22.2961 -4.8316,-16.3575 5.2425,2.3155 19.9387,-4.0827 25.5725,-4.4709 4.8767,-0.3359 30.18819,0.8195 30.18819,0.8195 z"
         style="fill:#d8808c;fill-opacity:1;stroke:none" />
      <path
         sodipodi:nodetypes="cccc"
         inkscape:connector-curvature="0"
         id="path4596-8-2"
         d="m 464.55088,1439.1601 c 4.1298,-9.2493 -8.9635,-12.6839 -15.8177,-11.8232 -6.1673,0.037 -14.7831,5.1621 -11.4813,12.2648 4.3442,8.7322 23.1468,4.1543 27.299,-0.4417 z"
         style="fill:#ffffff;stroke:none" />
      <path
         inkscape:connector-curvature="0"
         id="path4590-81-8"
         d="m 435.95328,1431.3039 c 5.6075,-3.8916 6.8819,-5.7424 10.3084,-7.143 3.4266,-1.4005 4.5677,-2.478 7.5946,-1.5586 3.0268,0.9196 4.9632,3.0848 6.2753,3.7886 1.3121,0.7038 2.2665,-1.6004 3.0528,-3.8539 0.7864,-2.2535 1.9464,-2.0536 -0.3925,-3.7307 -2.339,-1.6769 -3.0328,-4.5835 -9.9553,-3.2279 -6.9226,1.3557 -10.2507,1.2602 -15.6743,4.5464 -5.4235,3.2862 -7.4902,3.7265 -7.0499,5.7931 0.4403,2.0667 1.7742,5.8798 3.3876,5.7596 1.6134,-0.1202 2.4533,-0.3737 2.4533,-0.3737 z"
         style="fill:#372825;fill-opacity:1;stroke:none" />
      <path
         inkscape:connector-curvature="0"
         id="path4592-11-2"
         d="m 482.49668,1420.6965 c 9.5954,2.9095 14.2834,5.2392 19.146,3.649 4.8625,-1.5902 5.1748,-2.9588 9.28069,-2.0219 4.1059,0.9369 7.8364,4.308 9.5862,4.5273 1.7498,0.2193 3.9589,0 2.8877,-2.4008 -1.0713,-2.4042 -5.0325,-8.7079 -11.6506,-9.6781 -6.61809,-0.9702 -8.21529,2.0851 -13.27869,2.1895 -5.0635,0.1045 -6.7112,-1.3514 -11.5886,-0.4846 -4.8775,0.8669 -4.3827,4.2196 -4.3827,4.2196 z"
         style="fill:#372825;fill-opacity:1;stroke:none" />
      <path
         transform="matrix(1.9653382,0,0,1.9653382,-1339.9318,931.63565)"
         d="m 909.64288,256.42856 c 0,1.38071 -1.11928,2.5 -2.5,2.5 -1.38071,0 -2.5,-1.11929 -2.5,-2.5 0,-1.38071 1.11929,-2.5 2.5,-2.5 1.38072,0 2.5,1.11929 2.5,2.5 z"
         sodipodi:ry="2.5"
         sodipodi:rx="2.5"
         sodipodi:cy="256.42856"
         sodipodi:cx="907.14288"
         id="path4619-2-7"
         style="fill:#372825;fill-opacity:1;fill-rule:nonzero;stroke:none"
         sodipodi:type="arc" />
      <path
         d="m 909.64288,256.42856 c 0,1.38071 -1.11928,2.5 -2.5,2.5 -1.38071,0 -2.5,-1.11929 -2.5,-2.5 0,-1.38071 1.11929,-2.5 2.5,-2.5 1.38072,0 2.5,1.11929 2.5,2.5 z"
         sodipodi:ry="2.5"
         sodipodi:rx="2.5"
         sodipodi:cy="256.42856"
         sodipodi:cx="907.14288"
         id="path4619-4-9-6"
         style="fill:#372825;fill-opacity:1;fill-rule:nonzero;stroke:none"
         sodipodi:type="arc"
         transform="matrix(1.9653382,0,0,1.9653382,-1287.2462,927.73215)" />
    </g>
  </g>
</svg>
