<?xml version="1.0" encoding="UTF-8" standalone="no"?>
<!-- Created with Inkscape (http://www.inkscape.org/) -->

<svg
   xmlns:dc="http://purl.org/dc/elements/1.1/"
   xmlns:cc="http://creativecommons.org/ns#"
   xmlns:rdf="http://www.w3.org/1999/02/22-rdf-syntax-ns#"
   xmlns:svg="http://www.w3.org/2000/svg"
   xmlns="http://www.w3.org/2000/svg"
   xmlns:sodipodi="http://sodipodi.sourceforge.net/DTD/sodipodi-0.dtd"
   xmlns:inkscape="http://www.inkscape.org/namespaces/inkscape"
   width="94.332863"
   height="91.39238"
   id="svg5192"
   version="1.1"
   inkscape:version="0.48.3.1 r9886"
   sodipodi:docname="Nou document 13">
  <defs
     id="defs5194" />
  <sodipodi:namedview
     id="base"
     pagecolor="#ffffff"
     bordercolor="#666666"
     borderopacity="1.0"
     inkscape:pageopacity="0.0"
     inkscape:pageshadow="2"
     inkscape:zoom="0.35"
     inkscape:cx="736.45212"
     inkscape:cy="-191.44666"
     inkscape:document-units="px"
     inkscape:current-layer="capa1"
     showgrid="false"
     fit-margin-top="0"
     fit-margin-left="0"
     fit-margin-right="0"
     fit-margin-bottom="0"
     inkscape:window-width="1364"
     inkscape:window-height="766"
     inkscape:window-x="0"
     inkscape:window-y="0"
     inkscape:window-maximized="0" />
  <metadata
     id="metadata5197">
    <rdf:RDF>
      <cc:Work
         rdf:about="">
        <dc:format>image/svg+xml</dc:format>
        <dc:type
           rdf:resource="http://purl.org/dc/dcmitype/StillImage" />
        <dc:title></dc:title>
      </cc:Work>
    </rdf:RDF>
  </metadata>
  <g
     inkscape:label="Capa 1"
     inkscape:groupmode="layer"
     id="capa1"
     transform="translate(361.45212,-243.80885)">
    <g
       transform="translate(-2296.4285,708.57144)"
       style="opacity:0.95999995"
       id="g5165">
      <path
         inkscape:connector-curvature="0"
         id="path4607-0-8"
         d="m 2022.6933,-442.74958 c 1.5883,-1.09968 2.7399,-3.20781 1.9155,-5.11458 -1.1829,-2.76851 -4.1894,-4.2069 -7.008,-4.71229 -5.7513,-1.32246 -11.8394,-2.55311 -17.6647,-0.93184 -3.2605,0.85201 -6.7022,2.69579 -7.8996,6.05174 -0.6813,1.63037 -0.4962,3.71544 0.9327,4.89242 2.2077,1.86232 5.1098,2.54971 7.7833,3.46884 4.2376,1.0134 8.6811,0.61763 12.9251,-0.15428 3.1541,-0.66047 6.3859,-1.56293 9.0157,-3.49998 z"
         style="opacity:0.95999995;fill:#ffffff;stroke:none" />
      <path
         sodipodi:nodetypes="cccssc"
         inkscape:connector-curvature="0"
         id="path4588-0-6"
         d="m 2018.1295,-398.50009 c -6.6551,3.50953 -10.9768,21.99174 -19.4762,23.04459 -8.2932,4.17734 -24.0486,1.51658 -31.4529,-3.03565 0,0 -18.2767,-22.29613 -4.8316,-16.35752 5.2424,2.31555 21.4539,5.00865 27.0877,4.62057 4.8767,-0.33592 28.673,-8.27199 28.673,-8.27199 z"
         style="opacity:0.95999995;fill:#d8808c;fill-opacity:1;stroke:none" />
      <path
         sodipodi:nodetypes="cccc"
         inkscape:connector-curvature="0"
         id="path4596-2-57"
         d="m 1969.3241,-438.60123 c 4.1298,-9.24925 -8.9636,-12.68383 -15.8177,-11.82315 -6.1674,0.0366 -14.7832,5.16207 -11.4814,12.26494 4.3443,8.7322 23.1468,4.1543 27.2991,-0.44179 z"
         style="opacity:0.95999995;fill:#ffffff;stroke:none" />
      <path
         inkscape:connector-curvature="0"
         id="path4590-8-6"
         d="m 1938.8023,-450.74261 c 6.5939,-1.76327 8.4196,-3.07338 12.118,-3.23111 3.6983,-0.15774 5.1369,-0.78525 7.6737,1.10477 2.5367,1.89002 3.6257,4.58282 4.6221,5.68931 0.9963,1.10649 2.6744,-0.73853 4.1773,-2.59269 1.5028,-1.85417 2.5267,-1.27342 0.8936,-3.64326 -1.633,-2.36984 -1.3018,-5.33968 -8.2745,-6.40775 -6.9727,-1.06807 -10.0719,-2.28467 -16.2878,-1.0288 -6.2159,1.25591 -8.3095,0.97054 -8.5949,3.06418 -0.2854,2.09368 -0.3213,6.13328 1.2375,6.56637 1.5588,0.4331 2.435,0.47895 2.435,0.47895 z"
         style="opacity:0.95999995;fill:#372825;fill-opacity:1;stroke:none" />
      <path
         inkscape:connector-curvature="0"
         id="path4592-5-8"
         d="m 1988.1025,-452.05594 c 10.0108,0.56439 15.1161,1.72271 19.4664,-0.96946 4.3503,-2.69219 4.331,-4.09584 8.5421,-4.15372 4.211,-0.0579 8.6313,2.3383 10.3835,2.13872 1.7521,-0.19959 3.848,-0.93034 2.2399,-3.01417 -1.608,-2.08381 -6.9441,-7.27528 -13.6044,-6.65728 -6.6603,0.618 -7.4918,3.9638 -12.3877,5.25952 -4.896,1.29573 -6.8406,0.26953 -11.376,2.26222 -4.5354,1.99277 -3.2638,5.13417 -3.2638,5.13417 z"
         style="opacity:0.95999995;fill:#372825;fill-opacity:1;stroke:none" />
      <path
         transform="matrix(1.9653382,0,0,1.9653382,170.39723,-946.63067)"
         d="m 909.64288,256.42856 c 0,1.38071 -1.11928,2.5 -2.5,2.5 -1.38071,0 -2.5,-1.11929 -2.5,-2.5 0,-1.38071 1.11929,-2.5 2.5,-2.5 1.38072,0 2.5,1.11929 2.5,2.5 z"
         sodipodi:ry="2.5"
         sodipodi:rx="2.5"
         sodipodi:cy="256.42856"
         sodipodi:cx="907.14288"
         id="path4619-05-7"
         style="opacity:0.95999995;fill:#372825;fill-opacity:1;fill-rule:nonzero;stroke:none"
         sodipodi:type="arc" />
      <path
         d="m 909.64288,256.42856 c 0,1.38071 -1.11928,2.5 -2.5,2.5 -1.38071,0 -2.5,-1.11929 -2.5,-2.5 0,-1.38071 1.11929,-2.5 2.5,-2.5 1.38072,0 2.5,1.11929 2.5,2.5 z"
         sodipodi:ry="2.5"
         sodipodi:rx="2.5"
         sodipodi:cy="256.42856"
         sodipodi:cx="907.14288"
         id="path4619-4-4-0"
         style="opacity:0.95999995;fill:#372825;fill-opacity:1;fill-rule:nonzero;stroke:none"
         sodipodi:type="arc"
         transform="matrix(1.9653382,0,0,1.9653382,224.09303,-951.03927)" />
    </g>
  </g>
</svg>
