<?xml version="1.0" encoding="UTF-8" standalone="no"?>
<!-- Created with Inkscape (http://www.inkscape.org/) -->

<svg
   xmlns:dc="http://purl.org/dc/elements/1.1/"
   xmlns:cc="http://creativecommons.org/ns#"
   xmlns:rdf="http://www.w3.org/1999/02/22-rdf-syntax-ns#"
   xmlns:svg="http://www.w3.org/2000/svg"
   xmlns="http://www.w3.org/2000/svg"
   xmlns:sodipodi="http://sodipodi.sourceforge.net/DTD/sodipodi-0.dtd"
   xmlns:inkscape="http://www.inkscape.org/namespaces/inkscape"
   preserveAspectRatio="xMinYMin meet"
   viewBox="0 0 1000 1032.335"
   width="1000"
   height="1032.335"
   id="svg5070"
   version="1.1"
   inkscape:version="0.48.3.1 r9886"
   sodipodi:docname="face-right4.svg">
  <defs
     id="defs5072" />
  <sodipodi:namedview
     id="base"
     pagecolor="#ffffff"
     bordercolor="#666666"
     borderopacity="1.0"
     inkscape:pageopacity="0.0"
     inkscape:pageshadow="2"
     inkscape:zoom="0.35"
     inkscape:cx="493.72232"
     inkscape:cy="529.57429"
     inkscape:document-units="px"
     inkscape:current-layer="capa1"
     showgrid="false"
     fit-margin-top="0"
     fit-margin-left="0"
     fit-margin-right="0"
     fit-margin-bottom="0"
     inkscape:window-width="1364"
     inkscape:window-height="766"
     inkscape:window-x="0"
     inkscape:window-y="0"
     inkscape:window-maximized="0" />
  <metadata
     id="metadata5075">
    <rdf:RDF>
      <cc:Work
         rdf:about="">
        <dc:format>image/svg+xml</dc:format>
        <dc:type
           rdf:resource="http://purl.org/dc/dcmitype/StillImage" />
        <dc:title></dc:title>
      </cc:Work>
    </rdf:RDF>
  </metadata>
  <g
     inkscape:label="Capa 1"
     inkscape:groupmode="layer"
     id="capa1"
     transform="translate(89.997713,469.22324)">
    <g
       id="g3953"
       transform="matrix(3.6227784,0,0,3.6227784,-373.81976,-5226.6076)">
      <path
         id="path5361-2-3-5"
         transform="translate(0,452.36218)"
         d="m 262.5,1026.7188 -77.28125,12.625 c 0,0 -44.27425,16.6882 -57.40625,19.7187 -13.132,3.0305 -24.75,5.0313 -24.75,5.0313 0,0 -13.6418,28.8055 -18.1875,41.9374 -7.523047,21.8084 1.047313,30.6768 -6.53125,39.75 l 276.03125,0 0,-78.1874 c -13.0489,-2.4584 -13.12945,-19.374 -26.78125,-21.2188 C 308.90595,1043.8496 262.5,1026.7188 262.5,1026.7188 z"
         style="fill:#2b1100;fill-opacity:1;stroke:none"
         inkscape:connector-curvature="0" />
      <path
         sodipodi:nodetypes="csssssssssssssc"
         inkscape:connector-curvature="0"
         id="path4580-8-3-22"
         d="m 157.99148,1455.1069 c 5.9662,13.6872 19.6534,55.0997 27.3743,64.9263 7.721,9.8267 25.9706,11.9325 31.5858,9.8267 5.6153,-2.1057 34.3935,-20.3553 40.0087,-26.6724 5.6153,-6.3172 8.4229,-13.3363 10.5286,-26.6725 2.1057,-13.3362 -1.4038,-14.0381 3.5095,-16.1438 4.9134,-2.1057 12.6344,-4.2115 12.6344,-11.9324 0,-7.721 4.2114,-13.3363 4.9133,-18.2496 0.7019,-4.9133 6.3172,-17.5477 -2.1057,-16.8458 -8.4229,0.702 -14.0381,17.5477 -16.1439,13.3363 -2.1057,-4.2115 -3.5095,-63.8735 -14.74,-70.8926 -11.2305,-7.0191 -51.2392,-23.8648 -70.8926,-10.5286 -19.6533,13.3362 -32.9895,36.4991 -31.5857,44.922 1.4038,8.4229 3.5095,35.7972 1.4038,42.8163 -2.1058,7.0191 3.5095,22.1101 3.5095,22.1101 z"
         style="fill:#ffccaa;fill-opacity:1;stroke:none" />
      <path
         inkscape:connector-curvature="0"
         id="path4607-1-6-7"
         d="m 241.32628,1435.0117 c 1.5883,-1.0997 2.7399,-3.2078 1.9156,-5.1146 -1.183,-2.7685 -4.1895,-4.2069 -7.0081,-4.7123 -5.7512,-1.3224 -11.8394,-2.5531 -17.6646,-0.9318 -3.2606,0.852 -6.7023,2.6958 -7.8996,6.0517 -0.6813,1.6304 -0.4963,3.7155 0.9327,4.8924 2.2076,1.8624 5.1097,2.5498 7.7833,3.4689 4.2375,1.0134 8.6811,0.6176 12.925,-0.1543 3.1541,-0.6605 6.3859,-1.5629 9.0157,-3.5 z"
         style="fill:#ffffff;stroke:none" />
      <path
         sodipodi:nodetypes="csssssssssssscssscscscscccsssssscssssssscsssc"
         inkscape:connector-curvature="0"
         id="path4582-0-7-5"
         d="m 261.87358,1485.6398 c -1.4038,14.0381 -4.2114,18.2496 2.1058,12.6343 6.3171,-5.6152 10.5286,-7.019 8.4229,-22.461 -2.1058,-15.4419 -7.7711,-43.8291 -2.369,-47.0277 6.6681,-3.9482 5.0011,-6.2294 7.8965,-9.5635 2.6836,-3.0901 11.8493,-8.136 12.6343,-3.4218 0.6087,3.6562 -3.3341,18.4251 -1.9303,14.2136 1.4038,-4.2114 6.5804,-9.7389 3.7728,-16.0561 -2.8076,-6.3171 -9.4757,-9.037 -8.0719,-18.1618 1.4038,-9.1248 13.3362,-11.9324 -1.4038,-43.5182 -14.7401,-31.5858 -37.2011,-40.0087 -56.8545,-38.6049 -19.6534,1.4038 -20.3553,-4.9133 -30.8839,5.6153 -10.5286,10.5286 -4.9133,12.6343 -21.7591,7.0191 -16.8457,-5.6153 -21.759,-2.8077 -21.759,-2.8077 0,0 11.2304,-0.7019 18.2495,4.2115 7.0191,4.9133 -7.721,1.4038 -16.1438,9.1247 -8.4229,7.721 -5.9727,4.9149 -16.1439,2.1058 -9.2125,-2.5445 -8.4229,1.4038 -8.4229,1.4038 0,0 2.8077,-4.9134 5.6153,3.5095 2.8076,8.4229 3.5095,7.0191 3.5095,7.0191 0,0 -9.1248,-3.5096 -10.5286,4.2114 -1.4038,7.721 0,5.6153 0,5.6153 0,0 3.5096,-8.4229 9.1248,-7.721 5.6153,0.7019 1.4038,5.6152 1.4038,5.6152 0,0 -19.6534,1.4039 -14.0381,13.3362 6.8693,14.5025 2.8697,2.725 3.5095,1.4039 4.2115,-8.4229 6.3172,0 5.6153,3.5095 -0.7019,3.5095 -4.2115,6.3172 1.4038,11.9324 5.6152,5.6153 5.6152,6.3172 8.4229,14.74 2.8076,8.4229 -0.7019,17.5477 4.2114,21.0572 4.9133,3.5096 2.8076,-2.8076 4.2115,4.2115 1.4038,7.019 0.7018,22.461 3.5095,23.8648 2.8076,1.4038 1.4038,-6.3172 1.4038,-6.3172 0,0 -1.4038,-38.6048 -0.7019,-49.8353 0.7019,-11.2305 -1.4038,-25.2686 2.1057,-14.0381 3.5095,11.2305 8.4229,16.1438 16.1439,8.4228 7.7209,-7.7209 6.3171,-18.2495 16.1438,-21.0572 9.8267,-2.8076 21.7591,-4.2114 32.9896,1.4039 11.2305,5.6152 11.2305,-2.1058 12.6343,-5.6153 1.4038,-3.5095 3.5095,-2.8076 8.4229,6.3171 4.9133,9.1248 9.1248,6.3172 9.1248,6.3172 0,0 -4.9134,3.5095 -2.8076,12.6343 2.1057,9.1248 2.1057,16.1439 6.3171,16.1439 4.2115,0 5.6153,35.0953 4.2115,44.2201 -1.4039,9.1248 0.7018,34.3934 0.7018,34.3934 z"
         style="fill:#372825;fill-opacity:1;stroke:none" />
      <path
         inkscape:connector-curvature="0"
         id="path4584-3-5-2"
         d="m 275.73628,1450.0181 c 3.685,-1.4038 3.5095,-4.036 4.9134,-5.0889 1.4038,-1.0528 2.2812,-0.7019 2.2812,-2.9831 0,-2.2812 -2.8077,-3.1586 -3.1586,-5.4397 -0.351,-2.2812 0,-4.2115 -2.2812,-3.3341 -2.2812,0.8774 -2.8077,3.685 -1.4038,5.6152 1.4038,1.9303 2.2812,0.8774 1.7547,3.3341 -0.5264,2.4567 -2.4566,4.5624 -2.6321,6.3172 -0.1755,1.7547 0.5264,1.5793 0.5264,1.5793 z"
         style="fill:#ac5760;fill-opacity:1;stroke:none" />
      <path
         sodipodi:nodetypes="ccc"
         inkscape:connector-curvature="0"
         id="path4588-6-1-7"
         d="m 195.95098,1485.8547 c 30.831,-15.7063 33.74275,12.4293 28.1823,13.1484 -15.38263,9.1033 -43.12353,5.2317 -28.1823,-13.1484 z"
         style="fill:#d8808c;fill-opacity:1;stroke:none" />
      <path
         sodipodi:nodetypes="cccc"
         inkscape:connector-curvature="0"
         id="path4596-3-9-0"
         d="m 187.95708,1439.16 c 4.1298,-9.2492 -8.9635,-12.6838 -15.8177,-11.8231 -6.1673,0.037 -14.7831,5.1621 -11.4813,12.2649 4.3442,8.7322 23.1468,4.1543 27.299,-0.4418 z"
         style="fill:#ffffff;stroke:none" />
      <path
         inkscape:connector-curvature="0"
         id="path4590-6-4-5"
         d="m 160.56503,1426.6618 c 6.81408,-0.3954 8.86677,-1.3099 12.52074,-0.7176 3.65398,0.5923 5.18969,0.2682 7.29259,2.6316 2.10284,2.3633 2.62562,5.2206 3.37801,6.5054 0.75239,1.2849 2.76849,-0.1833 4.61474,-1.6957 1.84633,-1.5126 2.73182,-0.737 1.61098,-3.3878 -1.12091,-2.6508 -0.19674,-5.4926 -6.81019,-7.9466 -6.61346,-2.4541 -9.40311,-4.2714 -15.74449,-4.2966 -6.34145,-0.025 -8.33436,-0.7273 -9.03667,1.2655 -0.70224,1.9929 -1.55315,5.9421 -0.11388,6.6811 1.4392,0.7389 2.2881,0.9606 2.2881,0.9606 z"
         style="fill:#372825;fill-opacity:1;stroke:none" />
      <path
         inkscape:connector-curvature="0"
         id="path4592-1-0-0"
         d="m 207.19488,1429.4175 c 10.01867,-0.4039 15.21183,0.2565 19.28218,-2.8427 4.07036,-3.0993 3.91575,-4.4945 8.10152,-4.9584 4.18591,-0.4637 8.81659,1.4949 10.54138,1.1272 1.72479,-0.3677 3.74037,-1.2972 1.93877,-3.2162 -1.80156,-1.9189 -7.61352,-6.5715 -14.1831,-5.314 -6.56968,1.2576 -7.07454,4.6681 -11.82265,6.43 -4.74817,1.762 -6.78272,0.9281 -11.10471,3.349 -4.32214,2.421 -2.75339,5.4251 -2.75339,5.4251 z"
         style="fill:#372825;fill-opacity:1;stroke:none" />
      <path
         transform="matrix(1.9653382,0,0,1.9653382,-1608.5056,931.67158)"
         d="m 909.64288,256.42856 c 0,1.38071 -1.11928,2.5 -2.5,2.5 -1.38071,0 -2.5,-1.11929 -2.5,-2.5 0,-1.38071 1.11929,-2.5 2.5,-2.5 1.38072,0 2.5,1.11929 2.5,2.5 z"
         sodipodi:ry="2.5"
         sodipodi:rx="2.5"
         sodipodi:cy="256.42856"
         sodipodi:cx="907.14288"
         id="path4619-8-6-7"
         style="fill:#372825;fill-opacity:1;fill-rule:nonzero;stroke:none"
         sodipodi:type="arc" />
      <path
         d="m 909.64288,256.42856 c 0,1.38071 -1.11928,2.5 -2.5,2.5 -1.38071,0 -2.5,-1.11929 -2.5,-2.5 0,-1.38071 1.11929,-2.5 2.5,-2.5 1.38072,0 2.5,1.11929 2.5,2.5 z"
         sodipodi:ry="2.5"
         sodipodi:rx="2.5"
         sodipodi:cy="256.42856"
         sodipodi:cx="907.14288"
         id="path4619-4-5-0-9"
         style="fill:#372825;fill-opacity:1;fill-rule:nonzero;stroke:none"
         sodipodi:type="arc"
         transform="matrix(1.9653382,0,0,1.9653382,-1556.325,928.27323)" />
    </g>
  </g>
</svg>
