<?xml version="1.0" encoding="UTF-8" standalone="no"?>
<!-- Created with Inkscape (http://www.inkscape.org/) -->

<svg
   xmlns:dc="http://purl.org/dc/elements/1.1/"
   xmlns:cc="http://creativecommons.org/ns#"
   xmlns:rdf="http://www.w3.org/1999/02/22-rdf-syntax-ns#"
   xmlns:svg="http://www.w3.org/2000/svg"
   xmlns="http://www.w3.org/2000/svg"
   xmlns:sodipodi="http://sodipodi.sourceforge.net/DTD/sodipodi-0.dtd"
   xmlns:inkscape="http://www.inkscape.org/namespaces/inkscape"
   preserveAspectRatio="xMinYMin meet"
   viewBox="0 0 1000 1032.335"
   width="1000"
   height="1032.335"
   id="svg5070"
   version="1.1"
   inkscape:version="0.48.3.1 r9886"
   sodipodi:docname="face-wrong1.svg">
  <defs
     id="defs5072" />
  <sodipodi:namedview
     id="base"
     pagecolor="#ffffff"
     bordercolor="#666666"
     borderopacity="1.0"
     inkscape:pageopacity="0.0"
     inkscape:pageshadow="2"
     inkscape:zoom="0.35"
     inkscape:cx="493.72232"
     inkscape:cy="529.57429"
     inkscape:document-units="px"
     inkscape:current-layer="capa1"
     showgrid="false"
     fit-margin-top="0"
     fit-margin-left="0"
     fit-margin-right="0"
     fit-margin-bottom="0"
     inkscape:window-width="1364"
     inkscape:window-height="766"
     inkscape:window-x="0"
     inkscape:window-y="0"
     inkscape:window-maximized="0" />
  <metadata
     id="metadata5075">
    <rdf:RDF>
      <cc:Work
         rdf:about="">
        <dc:format>image/svg+xml</dc:format>
        <dc:type
           rdf:resource="http://purl.org/dc/dcmitype/StillImage" />
        <dc:title></dc:title>
      </cc:Work>
    </rdf:RDF>
  </metadata>
  <g
     inkscape:label="Capa 1"
     inkscape:groupmode="layer"
     id="capa1"
     transform="translate(89.997713,469.22324)">
    <g
       id="g3862"
       transform="matrix(3.6227777,0,0,3.6227777,6640.444,-5226.3655)">
      <path
         id="path5361-5-2"
         transform="translate(0,452.36218)"
         d="m -1673.6562,1026.7188 -77.2813,12.625 c 0,0 -44.2742,16.6883 -57.4063,19.7187 -13.1319,3.0305 -24.75,5.0313 -24.75,5.0313 0,0 -13.6418,28.8054 -18.1874,41.9374 -7.5231,21.8084 1.0473,30.6768 -6.5313,39.75 l 276.0313,0 0,-78.1874 c -13.049,-2.4584 -13.1295,-19.374 -26.7813,-21.2188 -18.6878,-2.5254 -65.0937,-19.6562 -65.0937,-19.6562 z"
         style="fill:#2b1100;fill-opacity:1;stroke:none"
         inkscape:connector-curvature="0" />
      <path
         sodipodi:nodetypes="csssssssssssssc"
         inkscape:connector-curvature="0"
         id="path4580-7-2"
         d="m -1778.1648,1455.1068 c 5.9662,13.6872 19.6534,55.0997 27.3744,64.9264 7.7209,9.8267 25.9705,11.9324 31.5858,9.8267 5.6152,-2.1058 34.3934,-20.3553 40.0086,-26.6725 5.6153,-6.3171 8.4229,-13.3362 10.5286,-26.6724 2.1058,-13.3362 -1.4038,-14.0382 3.5096,-16.1439 4.9133,-2.1057 12.6343,-4.2114 12.6343,-11.9324 0,-7.721 4.2114,-13.3362 4.9133,-18.2496 0.7019,-4.9133 6.3172,-17.5476 -2.1057,-16.8457 -8.4229,0.7019 -14.0381,17.5476 -16.1438,13.3362 -2.1058,-4.2114 -3.5096,-63.8735 -14.7401,-70.8925 -11.2305,-7.0191 -51.2392,-23.8649 -70.8925,-10.5286 -19.6534,13.3362 -32.9896,36.4991 -31.5858,44.922 1.4038,8.4228 3.5095,35.7972 1.4038,42.8162 -2.1057,7.0191 3.5095,22.1101 3.5095,22.1101 z"
         style="fill:#ffccaa;fill-opacity:1;stroke:none" />
      <path
         inkscape:connector-curvature="0"
         id="path4607-6-5"
         d="m -1694.83,1435.0116 c 1.5883,-1.0997 2.7399,-3.2078 1.9156,-5.1145 -1.1829,-2.7686 -4.1895,-4.207 -7.0081,-4.7123 -5.7512,-1.3225 -11.8394,-2.5532 -17.6646,-0.9319 -3.2606,0.852 -6.7023,2.6958 -7.8996,6.0518 -0.6813,1.6303 -0.4963,3.7154 0.9327,4.8924 2.2076,1.8623 5.1098,2.5497 7.7833,3.4688 4.2375,1.0134 8.6811,0.6176 12.925,-0.1543 3.1541,-0.6604 6.3859,-1.5629 9.0157,-3.4999 z"
         style="fill:#ffffff;stroke:none" />
      <path
         sodipodi:nodetypes="csssssssssssscssscscscscccsssssscssssssscsssc"
         inkscape:connector-curvature="0"
         id="path4582-4-0"
         d="m -1674.2826,1485.6398 c -1.4038,14.0381 -4.2115,18.2495 2.1057,12.6343 6.3172,-5.6153 10.5286,-7.0191 8.4229,-22.461 -2.1057,-15.442 -7.7711,-43.8292 -2.369,-47.0278 6.6682,-3.9482 5.0011,-6.2294 7.8965,-9.5634 2.6836,-3.0902 11.8494,-8.1361 12.6343,-3.4219 0.6088,3.6562 -3.3341,18.4251 -1.9303,14.2137 1.4039,-4.2115 6.5804,-9.739 3.7728,-16.0562 -2.8076,-6.3171 -9.4757,-9.037 -8.0719,-18.1618 1.4038,-9.1248 13.3362,-11.9324 -1.4038,-43.5182 -14.7401,-31.5858 -37.2011,-40.0086 -56.8545,-38.6048 -19.6533,1.4038 -20.3552,-4.9134 -30.8839,5.6152 -10.5285,10.5286 -4.9133,12.6343 -21.7591,7.0191 -16.8457,-5.6153 -21.759,-2.8076 -21.759,-2.8076 0,0 11.2305,-0.702 18.2495,4.2114 7.0191,4.9133 -7.7209,1.4038 -16.1438,9.1248 -8.4229,7.7209 -5.9727,4.9149 -16.1439,2.1057 -9.2125,-2.5444 -8.4229,1.4038 -8.4229,1.4038 0,0 2.8077,-4.9133 5.6153,3.5095 2.8076,8.4229 3.5095,7.0191 3.5095,7.0191 0,0 -9.1248,-3.5095 -10.5286,4.2114 -1.4038,7.721 0,5.6153 0,5.6153 0,0 3.5096,-8.4229 9.1248,-7.721 5.6153,0.7019 1.4038,5.6153 1.4038,5.6153 0,0 -19.6533,1.4038 -14.0381,13.3362 6.8693,14.5024 2.8697,2.7249 3.5095,1.4038 4.2115,-8.4229 6.3172,0 5.6153,3.5095 -0.7019,3.5096 -4.2115,6.3172 1.4038,11.9324 5.6153,5.6153 5.6153,6.3172 8.4229,14.7401 2.8076,8.4229 -0.7019,17.5476 4.2114,21.0572 4.9134,3.5095 2.8076,-2.8076 4.2115,4.2114 1.4038,7.0191 0.7019,22.461 3.5095,23.8648 2.8076,1.4039 1.4038,-6.3171 1.4038,-6.3171 0,0 -1.4038,-38.6049 -0.7019,-49.8354 0.7019,-11.2305 -1.4038,-25.2686 2.1057,-14.0381 3.5096,11.2305 8.4229,16.1438 16.1439,8.4229 7.7209,-7.721 6.3171,-18.2496 16.1438,-21.0572 9.8267,-2.8077 21.7591,-4.2115 32.9896,1.4038 11.2305,5.6152 11.2305,-2.1057 12.6343,-5.6153 1.4038,-3.5095 3.5096,-2.8076 8.4229,6.3172 4.9133,9.1248 9.1248,6.3172 9.1248,6.3172 0,0 -4.9133,3.5095 -2.8076,12.6343 2.1057,9.1248 2.1057,16.1438 6.3171,16.1438 4.2115,0 5.6153,35.0954 4.2115,44.2201 -1.4038,9.1248 0.7019,34.3935 0.7019,34.3935 z"
         style="fill:#372825;fill-opacity:1;stroke:none" />
      <path
         inkscape:connector-curvature="0"
         id="path4584-0-5"
         d="m -1660.42,1450.018 c 3.685,-1.4038 3.5096,-4.036 4.9134,-5.0888 1.4038,-1.0529 2.2812,-0.7019 2.2812,-2.9831 0,-2.2812 -2.8077,-3.1586 -3.1586,-5.4398 -0.351,-2.2812 0,-4.2114 -2.2812,-3.3341 -2.2812,0.8774 -2.8076,3.6851 -1.4038,5.6153 1.4038,1.9302 2.2812,0.8774 1.7548,3.3341 -0.5265,2.4566 -2.4567,4.5624 -2.6322,6.3171 -0.1755,1.7548 0.5264,1.5793 0.5264,1.5793 z"
         style="fill:#ac5760;fill-opacity:1;stroke:none" />
      <path
         sodipodi:nodetypes="cccssc"
         inkscape:connector-curvature="0"
         id="path4588-8-9"
         d="m -1753.1408,1488.7259 c 7.019,-3.5095 13.3298,-5.3898 15.4355,-6.4427 8.2933,-4.1773 22.6349,5.0599 33.2535,2.1122 0,0 -4.9793,20.5129 -9.8926,21.2148 -4.9134,0.7019 -15.5611,3.7414 -20.1235,1.9866 -4.5624,-1.7548 -18.6729,-18.8709 -18.6729,-18.8709 z"
         style="fill:#d8808c;fill-opacity:1;stroke:none" />
      <path
         sodipodi:nodetypes="cccc"
         inkscape:connector-curvature="0"
         id="path4596-6-1"
         d="m -1748.1992,1439.16 c 4.1298,-9.2493 -8.9635,-12.6839 -15.8177,-11.8232 -6.1673,0.037 -14.7831,5.1621 -11.4813,12.265 4.3442,8.7322 23.1468,4.1543 27.299,-0.4418 z"
         style="fill:#ffffff;stroke:none" />
      <path
         inkscape:connector-curvature="0"
         id="path4590-2-3"
         d="m -1777.1765,1425.3778 c 5.7136,-3.734 7.039,-5.5487 10.5031,-6.8534 3.4642,-1.3047 4.6349,-2.35 7.635,-1.3466 3.0001,1.0034 4.8755,3.2215 6.1675,3.9615 1.292,0.7401 2.3101,-1.5367 3.1588,-3.7674 0.8488,-2.2307 2.0028,-1.9987 -0.2886,-3.7401 -2.2914,-1.7415 -2.904,-4.6662 -9.8616,-3.5036 -6.9577,1.1626 -10.2818,0.9745 -15.7947,4.1085 -5.5129,3.1341 -7.591,3.5167 -7.2083,5.5948 0.3826,2.0781 1.6099,5.9269 3.226,5.8516 1.6161,-0.075 2.4628,-0.3053 2.4628,-0.3053 z"
         style="fill:#372825;fill-opacity:1;stroke:none" />
      <path
         inkscape:connector-curvature="0"
         id="path4592-7-2"
         d="m -1729.1566,1415.2576 c 9.5079,3.1837 14.1272,5.647 19.0333,4.197 4.9062,-1.45 5.2577,-2.8091 9.335,-1.7547 4.0773,1.0544 7.7095,4.5311 9.4523,4.8006 1.7428,0.2694 3.9572,0.117 2.9554,-2.317 -1.0018,-2.4341 -4.7805,-8.8487 -11.368,-10.0085 -6.5876,-1.1597 -8.2717,1.8485 -13.3361,1.8076 -5.0644,-0.041 -6.6696,-1.5435 -11.5699,-0.8171 -4.9004,0.7266 -4.502,4.0921 -4.502,4.0921 z"
         style="fill:#372825;fill-opacity:1;stroke:none" />
      <path
         transform="matrix(1.9653382,0,0,1.9653382,-3548.1975,931.30914)"
         d="m 909.64288,256.42856 c 0,1.38071 -1.11928,2.5 -2.5,2.5 -1.38071,0 -2.5,-1.11929 -2.5,-2.5 0,-1.38071 1.11929,-2.5 2.5,-2.5 1.38072,0 2.5,1.11929 2.5,2.5 z"
         sodipodi:ry="2.5"
         sodipodi:rx="2.5"
         sodipodi:cy="256.42856"
         sodipodi:cx="907.14288"
         id="path4619-0-2"
         style="fill:#372825;fill-opacity:1;fill-rule:nonzero;stroke:none"
         sodipodi:type="arc" />
      <path
         d="m 909.64288,256.42856 c 0,1.38071 -1.11928,2.5 -2.5,2.5 -1.38071,0 -2.5,-1.11929 -2.5,-2.5 0,-1.38071 1.11929,-2.5 2.5,-2.5 1.38072,0 2.5,1.11929 2.5,2.5 z"
         sodipodi:ry="2.5"
         sodipodi:rx="2.5"
         sodipodi:cy="256.42856"
         sodipodi:cx="907.14288"
         id="path4619-4-6-9"
         style="fill:#372825;fill-opacity:1;fill-rule:nonzero;stroke:none"
         sodipodi:type="arc"
         transform="matrix(1.9653382,0,0,1.9653382,-3494.5017,928.15054)" />
    </g>
  </g>
</svg>
